<?xml version="1.0" encoding="UTF-8" standalone="no"?>
<svg
   contentStyleType="text/css"
   height="1500"
   preserveAspectRatio="none"
   version="1.1"
   viewBox="0 0 2715 1500"
   width="2715"
   zoomAndPan="magnify"
   id="svg41"
   sodipodi:docname="auth.svg"
   inkscape:export-filename="auth.png"
   inkscape:export-xdpi="96"
   inkscape:export-ydpi="96"
   inkscape:version="1.3.2 (091e20e, 2023-11-25, custom)"
   xmlns:inkscape="http://www.inkscape.org/namespaces/inkscape"
   xmlns:sodipodi="http://sodipodi.sourceforge.net/DTD/sodipodi-0.dtd"
   xmlns="http://www.w3.org/2000/svg"
   xmlns:svg="http://www.w3.org/2000/svg">
  <sodipodi:namedview
     id="namedview41"
     pagecolor="#ffffff"
     bordercolor="#999999"
     borderopacity="1"
     inkscape:showpageshadow="2"
     inkscape:pageopacity="0"
     inkscape:pagecheckerboard="0"
     inkscape:deskcolor="#d1d1d1"
     inkscape:export-bgcolor="#ffffffff"
     inkscape:zoom="0.43546318"
     inkscape:cx="417.94578"
     inkscape:cy="781.92604"
     inkscape:window-width="1536"
     inkscape:window-height="801"
     inkscape:window-x="1912"
     inkscape:window-y="-8"
     inkscape:window-maximized="1"
     inkscape:current-layer="g41" />
  <defs
     id="defs1" />
  <g
     id="g41">
    <!--cluster bloco_na_rua-->
    <!--cluster src-->
    <!--cluster features-->
    <g
       id="cluster_features" />
    <!--cluster auth-->
    <g
       id="cluster_auth">
      <path
         d="m 80.5,138 h 32 c 1.19853,0.36356 2.13644,1.30147 2.5,2.5 l 7,21.1094 h 1035.4623 c 1.3807,0 2.5,1.11929 2.5,2.5 l 0,919.6669 c 0,1.3807 -1.1193,2.5 -2.5,2.5 H 80.5 c -1.380712,0 -2.5,-1.1193 -2.5,-2.5 L 78,140.5 c 0,-1.38071 1.119288,-2.5 2.5,-2.5"
         fill="none"
         style="stroke:#000000;stroke-width:1.5"
         id="path4"
         sodipodi:nodetypes="ccccsssssssc" />
      <line
         style="stroke:#000000;stroke-width:1.5"
         x1="78"
         x2="122"
         y1="161.60941"
         y2="161.60941"
         id="line4" />
      <text
         fill="#000000"
         font-family="sans-serif"
         font-size="14px"
         font-weight="bold"
         lengthAdjust="spacing"
         textLength="31"
         x="82"
         y="154.5332"
         id="text4">auth</text>
    </g>
    <!--cluster data-->
    <g
       id="cluster_data"
       transform="translate(-1692.571,571.06885)">
      <path
         d="m 2202.5,334 h 31 a 3.75,3.75 0 0 1 2.5,2.5 l 7,21.1094 h 366.5 a 2.5,2.5 0 0 1 2.5,2.5 V 483.5 a 2.5,2.5 0 0 1 -2.5,2.5 h -407 a 2.5,2.5 0 0 1 -2.5,-2.5 v -147 a 2.5,2.5 0 0 1 2.5,-2.5"
         fill="none"
         style="stroke:#000000;stroke-width:1.5"
         id="path5" />
      <line
         style="stroke:#000000;stroke-width:1.5"
         x1="2200"
         x2="2243"
         y1="357.60941"
         y2="357.60941"
         id="line5" />
      <text
         fill="#000000"
         font-family="sans-serif"
         font-size="14px"
         font-weight="bold"
         lengthAdjust="spacing"
         textLength="30"
         x="2204"
         y="350.5332"
         id="text5">data</text>
    </g>
    <!--cluster adapters-->
    <g
       id="cluster_adapters"
       transform="translate(-1692.571,571.06885)">
      <path
         d="m 2446.5,378 h 63 a 3.75,3.75 0 0 1 2.5,2.5 l 7,21.1094 h 66.5 a 2.5,2.5 0 0 1 2.5,2.5 V 459.5 a 2.5,2.5 0 0 1 -2.5,2.5 h -139 a 2.5,2.5 0 0 1 -2.5,-2.5 v -79 a 2.5,2.5 0 0 1 2.5,-2.5"
         fill="none"
         style="stroke:#000000;stroke-width:1.5"
         id="path6" />
      <line
         style="stroke:#000000;stroke-width:1.5"
         x1="2444"
         x2="2519"
         y1="401.60941"
         y2="401.60941"
         id="line6" />
      <text
         fill="#000000"
         font-family="sans-serif"
         font-size="14px"
         font-weight="bold"
         lengthAdjust="spacing"
         textLength="62"
         x="2448"
         y="394.5332"
         id="text6">adapters</text>
    </g>
    <!--cluster services-->
    <g
       id="cluster_services"
       transform="translate(-1692.571,571.06885)">
      <path
         d="m 2226.5,378 h 62 a 3.75,3.75 0 0 1 2.5,2.5 l 7,21.1094 h 119.5 a 2.5,2.5 0 0 1 2.5,2.5 V 459.5 a 2.5,2.5 0 0 1 -2.5,2.5 h -191 a 2.5,2.5 0 0 1 -2.5,-2.5 v -79 a 2.5,2.5 0 0 1 2.5,-2.5"
         fill="none"
         style="stroke:#000000;stroke-width:1.5"
         id="path7" />
      <line
         style="stroke:#000000;stroke-width:1.5"
         x1="2224"
         x2="2298"
         y1="401.60941"
         y2="401.60941"
         id="line7" />
      <text
         fill="#000000"
         font-family="sans-serif"
         font-size="14px"
         font-weight="bold"
         lengthAdjust="spacing"
         textLength="61"
         x="2228"
         y="394.5332"
         id="text7">services</text>
    </g>
    <!--cluster interactor-->
    <g
       id="cluster_interactor"
       transform="translate(-540.72667,232.20395)">
      <path
         d="m 647.5,182 h 70 c 1.19853,0.36356 2.13644,1.30147 2.5,2.5 l 7,21.1094 h 941.2908 c 1.3807,0 2.5,1.11929 2.5,2.5 v 453.31871 c 0,1.38071 -1.1193,2.5 -2.5,2.5 H 647.5 c -1.38071,0 -2.5,-1.11929 -2.5,-2.5 V 184.5 c 0,-1.38071 1.11929,-2.5 2.5,-2.5"
         fill="none"
         style="stroke:#000000;stroke-width:1.5"
         id="path8"
         sodipodi:nodetypes="ccccsssssssc" />
      <line
         style="stroke:#000000;stroke-width:1.5"
         x1="645"
         x2="727"
         y1="205.60941"
         y2="205.60941"
         id="line8" />
      <text
         fill="#000000"
         font-family="sans-serif"
         font-size="14px"
         font-weight="bold"
         lengthAdjust="spacing"
         textLength="69"
         x="649"
         y="198.5332"
         id="text8">interactor</text>
    </g>
    <!--cluster services-->
    <g
       id="g9"
       transform="translate(-1438.6902,542.74449)">
      <path
         d="m 2010.5,226 h 62 c 1.1985,0.36356 2.1364,1.30147 2.5,2.5 l 7,21.1094 h 67.5 c 1.3807,0 2.5,1.11929 2.5,2.5 v 68.02083 c 0,1.38071 -1.1193,2.5 -2.5,2.5 h -139 c -1.3807,0 -2.5,-1.11929 -2.5,-2.5 V 228.5 c 0,-1.38071 1.1193,-2.5 2.5,-2.5"
         fill="none"
         style="stroke:#000000;stroke-width:1.5"
         id="path9"
         sodipodi:nodetypes="ccccsssssssc" />
      <line
         style="stroke:#000000;stroke-width:1.5"
         x1="2008"
         x2="2082"
         y1="249.60941"
         y2="249.60941"
         id="line9" />
      <text
         fill="#000000"
         font-family="sans-serif"
         font-size="14px"
         font-weight="bold"
         lengthAdjust="spacing"
         textLength="61"
         x="2012"
         y="242.5332"
         id="text9">services</text>
    </g>
    <!--cluster entities-->
    <g
       id="cluster_entities"
       transform="translate(-685.27901,161.57838)">
      <path
         d="m 1258.5,510 h 54 a 3.75,3.75 0 0 1 2.5,2.5 l 7,21.1094 h 59.5 a 2.5,2.5 0 0 1 2.5,2.5 V 591.5 a 2.5,2.5 0 0 1 -2.5,2.5 h -123 a 2.5,2.5 0 0 1 -2.5,-2.5 v -79 a 2.5,2.5 0 0 1 2.5,-2.5"
         fill="none"
         style="stroke:#000000;stroke-width:1.5"
         id="path10" />
      <line
         style="stroke:#000000;stroke-width:1.5"
         x1="1256"
         x2="1322"
         y1="533.60938"
         y2="533.60938"
         id="line10" />
      <text
         fill="#000000"
         font-family="sans-serif"
         font-size="14px"
         font-weight="bold"
         lengthAdjust="spacing"
         textLength="53"
         x="1260"
         y="526.5332"
         id="text10">entities</text>
    </g>
    <!--cluster events-->
    <g
       id="cluster_events"
       transform="translate(-614.78574,238.51906)">
      <path
         d="m 1239.5,226 h 50 c 1.1985,0.36356 2.1364,1.30147 2.5,2.5 l 7,21.1094 h 428.5912 c 1.3807,0 2.5,1.11929 2.5,2.5 v 141.62654 c 0,1.38072 -1.1193,2.5 -2.5,2.5 H 1239.5 c -1.3807,0 -2.5,-1.11928 -2.5,-2.5 V 228.5 c 0,-1.38071 1.1193,-2.5 2.5,-2.5"
         fill="none"
         style="stroke:#000000;stroke-width:1.5"
         id="path11"
         sodipodi:nodetypes="ccccsssssssc" />
      <line
         style="stroke:#000000;stroke-width:1.5"
         x1="1237"
         x2="1299"
         y1="249.60941"
         y2="249.60941"
         id="line11" />
      <text
         fill="#000000"
         font-family="sans-serif"
         font-size="14px"
         font-weight="bold"
         lengthAdjust="spacing"
         textLength="49"
         x="1241"
         y="242.5332"
         id="text11">events</text>
    </g>
    <!--cluster states-->
    <g
       id="cluster_states"
       transform="translate(-540.72667,232.20395)">
      <path
         d="m 671.5,226 h 44 c 1.19853,0.36356 2.13644,1.30147 2.5,2.5 l 7,21.1094 h 417.756 c 1.3808,0 2.5,1.11929 2.5,2.5 v 144.81355 c 0,1.38071 -1.1192,2.5 -2.5,2.5 H 671.5 c -1.38071,0 -2.5,-1.11929 -2.5,-2.5 V 228.5 c 0,-1.38071 1.11929,-2.5 2.5,-2.5"
         fill="none"
         style="stroke:#000000;stroke-width:1.5"
         id="path12"
         sodipodi:nodetypes="ccccsssssssc" />
      <line
         style="stroke:#000000;stroke-width:1.5"
         x1="669"
         x2="725"
         y1="249.60941"
         y2="249.60941"
         id="line12" />
      <text
         fill="#000000"
         font-family="sans-serif"
         font-size="14px"
         font-weight="bold"
         lengthAdjust="spacing"
         textLength="43"
         x="673"
         y="242.5332"
         id="text12">states</text>
    </g>
    <!--cluster ui-->
    <g
       id="cluster_ui">
      <path
         d="m 104.5,182 h 14 c 1.19853,0.36356 2.13644,1.30147 2.5,2.5 l 7,21.1094 h 355.58618 c 1.38071,0 2.5,1.11929 2.5,2.5 v 185.83079 c 0,1.38071 -1.11929,2.5 -2.5,2.5 H 104.5 c -1.38071,0 -2.5,-1.11929 -2.5,-2.5 V 184.5 c 0,-1.38071 1.11929,-2.5 2.5,-2.5"
         fill="none"
         style="stroke:#000000;stroke-width:1.5"
         id="path13"
         sodipodi:nodetypes="ccccsssssssc" />
      <line
         style="stroke:#000000;stroke-width:1.5"
         x1="102"
         x2="128"
         y1="205.60941"
         y2="205.60941"
         id="line13" />
      <text
         fill="#000000"
         font-family="sans-serif"
         font-size="14px"
         font-weight="bold"
         lengthAdjust="spacing"
         textLength="13"
         x="106"
         y="198.5332"
         id="text13">ui</text>
    </g>
    <!--cluster pages-->
    <g
       id="cluster_pages">
      <path
         d="m 326.5,226 h 44 c 1.19853,0.36356 2.13644,1.30147 2.5,2.5 l 7,21.1094 h 84.17899 c 1.38072,0 2.5,1.11929 2.5,2.5 v 122.9977 c 0,1.38071 -1.11928,2.5 -2.5,2.5 H 326.5 c -1.38071,0 -2.5,-1.11929 -2.5,-2.5 V 228.5 c 0,-1.38071 1.11929,-2.5 2.5,-2.5"
         fill="none"
         style="stroke:#000000;stroke-width:1.5"
         id="path14"
         sodipodi:nodetypes="ccccsssssssc" />
      <line
         style="stroke:#000000;stroke-width:1.5"
         x1="324"
         x2="380"
         y1="249.60941"
         y2="249.60941"
         id="line14" />
      <text
         fill="#000000"
         font-family="sans-serif"
         font-size="14px"
         font-weight="bold"
         lengthAdjust="spacing"
         textLength="43"
         x="328"
         y="242.5332"
         id="text14">pages</text>
    </g>
    <!--cluster widgets-->
    <g
       id="cluster_widgets">
      <path
         d="m 128.5,226 h 56 a 3.75,3.75 0 0 1 2.5,2.5 l 7,21.1094 h 103.5 a 2.5,2.5 0 0 1 2.5,2.5 V 307.5 a 2.5,2.5 0 0 1 -2.5,2.5 h -169 a 2.5,2.5 0 0 1 -2.5,-2.5 v -79 a 2.5,2.5 0 0 1 2.5,-2.5"
         fill="none"
         style="stroke:#000000;stroke-width:1.5"
         id="path15" />
      <line
         style="stroke:#000000;stroke-width:1.5"
         x1="126"
         x2="194"
         y1="249.60941"
         y2="249.60941"
         id="line15" />
      <text
         fill="#000000"
         font-family="sans-serif"
         font-size="14px"
         font-weight="bold"
         lengthAdjust="spacing"
         textLength="55"
         x="130"
         y="242.5332"
         id="text15">widgets</text>
    </g>
    <!--class UserAdapter-->
    <g
       id="elem_UserAdapter"
       transform="translate(-1692.571,571.06885)">
      <rect
         codeLine="7"
         fill="#f1f1f1"
         height="32"
         id="UserAdapter"
         rx="2.5"
         ry="2.5"
         style="stroke:#181818;stroke-width:0.5"
         width="111"
         x="2460.5"
         y="414" />
      <circle
         cx="2475.5"
         cy="430"
         fill="#add1b2"
         style="stroke:#181818;stroke-width:1"
         id="ellipse15"
         r="11" />
      <path
         d="m 2478.2656,425.875 q 0.1563,-0.2187 0.3438,-0.3281 0.1875,-0.1094 0.4062,-0.1094 0.375,0 0.6094,0.2578 0.2344,0.2578 0.2344,0.8672 v 1.4531 q 0,0.6094 -0.2344,0.875 -0.2344,0.2657 -0.6094,0.2657 -0.3437,0 -0.5468,-0.2032 -0.2032,-0.1875 -0.3125,-0.7031 -0.047,-0.3594 -0.2344,-0.5469 -0.3281,-0.375 -0.9375,-0.5937 -0.6094,-0.2188 -1.2344,-0.2188 -0.7656,0 -1.3984,0.3282 -0.6328,0.3281 -1.125,1.0781 -0.4922,0.75 -0.4922,1.7812 v 1.0938 q 0,1.2344 0.8906,2.0547 0.8906,0.8203 2.4844,0.8203 0.9375,0 1.5937,-0.25 0.3907,-0.1563 0.8125,-0.5938 0.2657,-0.2656 0.4141,-0.3437 0.1484,-0.0781 0.3516,-0.0781 0.3281,0 0.5859,0.2578 0.2578,0.2578 0.2578,0.6015 0,0.3438 -0.3437,0.75 -0.5,0.5782 -1.2969,0.9063 -1.0781,0.4531 -2.375,0.4531 -1.5156,0 -2.7188,-0.625 -0.9843,-0.5 -1.6718,-1.5703 -0.6875,-1.0703 -0.6875,-2.3516 v -1.1562 q 0,-1.3281 0.6171,-2.4766 0.6172,-1.1484 1.711,-1.7656 1.0937,-0.6172 2.3281,-0.6172 0.7344,0 1.3828,0.1641 0.6485,0.164 1.1953,0.5234 z"
         fill="#000000"
         id="path16" />
      <text
         fill="#000000"
         font-family="sans-serif"
         font-size="14px"
         lengthAdjust="spacing"
         textLength="79"
         x="2489.5"
         y="435.72849"
         id="text16">UserAdapter</text>
    </g>
    <!--class FirebaseAuthService-->
    <g
       id="elem_FirebaseAuthService"
       transform="translate(-1692.571,571.06885)">
      <rect
         codeLine="11"
         fill="#f1f1f1"
         height="32"
         id="FirebaseAuthService"
         rx="2.5"
         ry="2.5"
         style="stroke:#181818;stroke-width:0.5"
         width="164"
         x="2240"
         y="414" />
      <circle
         cx="2255"
         cy="430"
         fill="#add1b2"
         style="stroke:#181818;stroke-width:1"
         id="ellipse16"
         r="11" />
      <path
         d="m 2257.7656,425.875 q 0.1563,-0.2187 0.3438,-0.3281 0.1875,-0.1094 0.4062,-0.1094 0.375,0 0.6094,0.2578 0.2344,0.2578 0.2344,0.8672 v 1.4531 q 0,0.6094 -0.2344,0.875 -0.2344,0.2657 -0.6094,0.2657 -0.3437,0 -0.5468,-0.2032 -0.2032,-0.1875 -0.3125,-0.7031 -0.047,-0.3594 -0.2344,-0.5469 -0.3281,-0.375 -0.9375,-0.5937 -0.6094,-0.2188 -1.2344,-0.2188 -0.7656,0 -1.3984,0.3282 -0.6328,0.3281 -1.125,1.0781 -0.4922,0.75 -0.4922,1.7812 v 1.0938 q 0,1.2344 0.8906,2.0547 0.8906,0.8203 2.4844,0.8203 0.9375,0 1.5937,-0.25 0.3907,-0.1563 0.8125,-0.5938 0.2657,-0.2656 0.4141,-0.3437 0.1484,-0.0781 0.3516,-0.0781 0.3281,0 0.5859,0.2578 0.2578,0.2578 0.2578,0.6015 0,0.3438 -0.3437,0.75 -0.5,0.5782 -1.2969,0.9063 -1.0781,0.4531 -2.375,0.4531 -1.5156,0 -2.7188,-0.625 -0.9843,-0.5 -1.6718,-1.5703 -0.6875,-1.0703 -0.6875,-2.3516 v -1.1562 q 0,-1.3281 0.6171,-2.4766 0.6172,-1.1484 1.711,-1.7656 1.0937,-0.6172 2.3281,-0.6172 0.7344,0 1.3828,0.1641 0.6485,0.164 1.1953,0.5234 z"
         fill="#000000"
         id="path17" />
      <text
         fill="#000000"
         font-family="sans-serif"
         font-size="14px"
         lengthAdjust="spacing"
         textLength="132"
         x="2269"
         y="435.72849"
         id="text17">FirebaseAuthService</text>
    </g>
    <!--class IAuthService-->
    <g
       id="elem_IAuthService"
       transform="translate(-1438.6902,542.74449)">
      <rect
         codeLine="61"
         fill="#f1f1f1"
         height="32"
         id="IAuthService"
         rx="2.5"
         ry="2.5"
         style="stroke:#181818;stroke-width:0.5"
         width="111"
         x="2024.5"
         y="262" />
      <circle
         cx="2039.5"
         cy="278"
         fill="#b4a7e5"
         style="stroke:#181818;stroke-width:1"
         id="ellipse17"
         r="11" />
      <path
         d="m 2040.4531,274.6406 v 6.6563 h 1.7188 q 0.6094,0 0.875,0.2344 0.2656,0.2343 0.2656,0.625 0,0.375 -0.2656,0.6093 -0.2656,0.2344 -0.875,0.2344 h -5.1406 q -0.6094,0 -0.875,-0.2344 -0.2657,-0.2343 -0.2657,-0.625 0,-0.375 0.2657,-0.6093 0.2656,-0.2344 0.875,-0.2344 h 1.7187 v -6.6563 h -1.7187 q -0.6094,0 -0.875,-0.2343 -0.2657,-0.2344 -0.2657,-0.625 0,-0.375 0.2657,-0.6094 0.2656,-0.2344 0.875,-0.2344 h 5.1406 q 0.6094,0 0.875,0.2344 0.2656,0.2344 0.2656,0.6094 0,0.3906 -0.2656,0.625 -0.2656,0.2343 -0.875,0.2343 z"
         fill="#000000"
         id="path18" />
      <text
         fill="#000000"
         font-family="sans-serif"
         font-size="14px"
         font-style="italic"
         lengthAdjust="spacing"
         textLength="79"
         x="2053.5"
         y="283.72849"
         id="text18">IAuthService</text>
    </g>
    <!--class UserEntity-->
    <g
       id="elem_UserEntity"
       transform="translate(-685.27901,161.57838)">
      <rect
         codeLine="21"
         fill="#f1f1f1"
         height="32"
         id="UserEntity"
         rx="2.5"
         ry="2.5"
         style="stroke:#181818;stroke-width:0.5"
         width="96"
         x="1272"
         y="546" />
      <circle
         cx="1287"
         cy="562"
         fill="#add1b2"
         style="stroke:#181818;stroke-width:1"
         id="ellipse18"
         r="11" />
      <path
         d="m 1285.8594,562.7969 v 2.5 h 4.3281 v -0.9219 q 0,-0.6094 0.2422,-0.875 0.2422,-0.2656 0.6172,-0.2656 0.375,0 0.6094,0.2656 0.2343,0.2656 0.2343,0.875 V 567 h -8 q -0.625,0 -0.8828,-0.2344 -0.2578,-0.2343 -0.2578,-0.625 0,-0.375 0.2656,-0.6093 0.2657,-0.2344 0.875,-0.2344 h 0.2657 v -6.6563 h -0.2657 q -0.625,0 -0.8828,-0.2343 -0.2578,-0.2344 -0.2578,-0.625 0,-0.375 0.2578,-0.6094 0.2578,-0.2344 0.8828,-0.2344 h 7.625 v 2.5938 q 0,0.6093 -0.2265,0.8671 -0.2266,0.2579 -0.6172,0.2579 -0.375,0 -0.6094,-0.2579 -0.2344,-0.2578 -0.2344,-0.8671 v -0.8907 h -3.9687 v 2.4532 h 1.4844 q 0,-0.6563 0.125,-0.8438 0.2656,-0.4062 0.7343,-0.4062 0.375,0 0.6094,0.2578 0.2344,0.2578 0.2344,0.8672 v 1.9687 q 0,0.5469 -0.125,0.7344 -0.2656,0.3906 -0.7188,0.3906 -0.4687,0 -0.7343,-0.4062 -0.125,-0.1875 -0.125,-0.8594 z"
         fill="#000000"
         id="path19" />
      <text
         fill="#000000"
         font-family="sans-serif"
         font-size="14px"
         lengthAdjust="spacing"
         textLength="64"
         x="1301"
         y="567.72852"
         id="text19">UserEntity</text>
    </g>
    <!--class AuthEvent-->
    <g
       id="elem_AuthEvent"
       transform="translate(-715.40021,239.66726)">
      <rect
         codeLine="30"
         fill="#f1f1f1"
         height="32"
         id="AuthEvent"
         rx="2.5"
         ry="2.5"
         style="stroke:#181818;stroke-width:0.5"
         width="97"
         x="1551.5"
         y="262" />
      <circle
         cx="1566.5"
         cy="278"
         fill="#add1b2"
         style="stroke:#181818;stroke-width:1"
         id="ellipse19"
         r="11" />
      <path
         d="m 1569.2656,273.875 q 0.1563,-0.2187 0.3438,-0.3281 0.1875,-0.1094 0.4062,-0.1094 0.375,0 0.6094,0.2578 0.2344,0.2578 0.2344,0.8672 v 1.4531 q 0,0.6094 -0.2344,0.875 -0.2344,0.2657 -0.6094,0.2657 -0.3437,0 -0.5468,-0.2032 -0.2032,-0.1875 -0.3125,-0.7031 -0.047,-0.3594 -0.2344,-0.5469 -0.3281,-0.375 -0.9375,-0.5937 -0.6094,-0.2188 -1.2344,-0.2188 -0.7656,0 -1.3984,0.3282 -0.6328,0.3281 -1.125,1.0781 -0.4922,0.75 -0.4922,1.7812 v 1.0938 q 0,1.2344 0.8906,2.0547 0.8906,0.8203 2.4844,0.8203 0.9375,0 1.5937,-0.25 0.3907,-0.1563 0.8125,-0.5938 0.2657,-0.2656 0.4141,-0.3437 0.1484,-0.0781 0.3516,-0.0781 0.3281,0 0.5859,0.2578 0.2578,0.2578 0.2578,0.6015 0,0.3438 -0.3437,0.75 -0.5,0.5782 -1.2969,0.9063 -1.0781,0.4531 -2.375,0.4531 -1.5156,0 -2.7188,-0.625 -0.9843,-0.5 -1.6718,-1.5703 -0.6875,-1.0703 -0.6875,-2.3516 v -1.1562 q 0,-1.3281 0.6171,-2.4766 0.6172,-1.1484 1.711,-1.7656 1.0937,-0.6172 2.3281,-0.6172 0.7344,0 1.3828,0.1641 0.6485,0.164 1.1953,0.5234 z"
         fill="#000000"
         id="path20" />
      <text
         fill="#000000"
         font-family="sans-serif"
         font-size="14px"
         lengthAdjust="spacing"
         textLength="65"
         x="1580.5"
         y="283.72849"
         id="text20">AuthEvent</text>
    </g>
    <!--class LoginAuthEvent-->
    <g
       id="elem_LoginAuthEvent"
       transform="translate(-615.64689,137.77657)">
      <rect
         codeLine="33"
         fill="#f1f1f1"
         height="32"
         id="LoginAuthEvent"
         rx="2.5"
         ry="2.5"
         style="stroke:#181818;stroke-width:0.5"
         width="132"
         x="1253"
         y="414" />
      <circle
         cx="1268"
         cy="430"
         fill="#add1b2"
         style="stroke:#181818;stroke-width:1"
         id="ellipse20"
         r="11" />
      <path
         d="m 1270.7656,425.875 q 0.1563,-0.2187 0.3438,-0.3281 0.1875,-0.1094 0.4062,-0.1094 0.375,0 0.6094,0.2578 0.2344,0.2578 0.2344,0.8672 v 1.4531 q 0,0.6094 -0.2344,0.875 -0.2344,0.2657 -0.6094,0.2657 -0.3437,0 -0.5468,-0.2032 -0.2032,-0.1875 -0.3125,-0.7031 -0.047,-0.3594 -0.2344,-0.5469 -0.3281,-0.375 -0.9375,-0.5937 -0.6094,-0.2188 -1.2344,-0.2188 -0.7656,0 -1.3984,0.3282 -0.6328,0.3281 -1.125,1.0781 -0.4922,0.75 -0.4922,1.7812 v 1.0938 q 0,1.2344 0.8906,2.0547 0.8906,0.8203 2.4844,0.8203 0.9375,0 1.5937,-0.25 0.3907,-0.1563 0.8125,-0.5938 0.2657,-0.2656 0.4141,-0.3437 0.1484,-0.0781 0.3516,-0.0781 0.3281,0 0.5859,0.2578 0.2578,0.2578 0.2578,0.6015 0,0.3438 -0.3437,0.75 -0.5,0.5782 -1.2969,0.9063 -1.0781,0.4531 -2.375,0.4531 -1.5156,0 -2.7188,-0.625 -0.9843,-0.5 -1.6718,-1.5703 -0.6875,-1.0703 -0.6875,-2.3516 v -1.1562 q 0,-1.3281 0.6171,-2.4766 0.6172,-1.1484 1.711,-1.7656 1.0937,-0.6172 2.3281,-0.6172 0.7344,0 1.3828,0.1641 0.6485,0.164 1.1953,0.5234 z"
         fill="#000000"
         id="path21" />
      <text
         fill="#000000"
         font-family="sans-serif"
         font-size="14px"
         lengthAdjust="spacing"
         textLength="100"
         x="1282"
         y="435.72849"
         id="text21">LoginAuthEvent</text>
    </g>
    <!--class CreateUserAuthEvent-->
    <g
       id="elem_CreateUserAuthEvent"
       transform="translate(-784.86647,174.80611)">
      <rect
         codeLine="40"
         fill="#f1f1f1"
         height="32"
         id="CreateUserAuthEvent"
         rx="2.5"
         ry="2.5"
         style="stroke:#181818;stroke-width:0.5"
         width="169"
         x="1420.5"
         y="414" />
      <circle
         cx="1435.5"
         cy="430"
         fill="#add1b2"
         style="stroke:#181818;stroke-width:1"
         id="ellipse21"
         r="11" />
      <path
         d="m 1438.2656,425.875 q 0.1563,-0.2187 0.3438,-0.3281 0.1875,-0.1094 0.4062,-0.1094 0.375,0 0.6094,0.2578 0.2344,0.2578 0.2344,0.8672 v 1.4531 q 0,0.6094 -0.2344,0.875 -0.2344,0.2657 -0.6094,0.2657 -0.3437,0 -0.5468,-0.2032 -0.2032,-0.1875 -0.3125,-0.7031 -0.047,-0.3594 -0.2344,-0.5469 -0.3281,-0.375 -0.9375,-0.5937 -0.6094,-0.2188 -1.2344,-0.2188 -0.7656,0 -1.3984,0.3282 -0.6328,0.3281 -1.125,1.0781 -0.4922,0.75 -0.4922,1.7812 v 1.0938 q 0,1.2344 0.8906,2.0547 0.8906,0.8203 2.4844,0.8203 0.9375,0 1.5937,-0.25 0.3907,-0.1563 0.8125,-0.5938 0.2657,-0.2656 0.4141,-0.3437 0.1484,-0.0781 0.3516,-0.0781 0.3281,0 0.5859,0.2578 0.2578,0.2578 0.2578,0.6015 0,0.3438 -0.3437,0.75 -0.5,0.5782 -1.2969,0.9063 -1.0781,0.4531 -2.375,0.4531 -1.5156,0 -2.7188,-0.625 -0.9843,-0.5 -1.6718,-1.5703 -0.6875,-1.0703 -0.6875,-2.3516 v -1.1562 q 0,-1.3281 0.6171,-2.4766 0.6172,-1.1484 1.711,-1.7656 1.0937,-0.6172 2.3281,-0.6172 0.7344,0 1.3828,0.1641 0.6485,0.164 1.1953,0.5234 z"
         fill="#000000"
         id="path22" />
      <text
         fill="#000000"
         font-family="sans-serif"
         font-size="14px"
         lengthAdjust="spacing"
         textLength="137"
         x="1449.5"
         y="435.72849"
         id="text22">CreateUserAuthEvent</text>
    </g>
    <!--class LogoutAuthEvent-->
    <g
       id="elem_LogoutAuthEvent"
       transform="translate(-664.73897,139.49887)">
      <rect
         codeLine="49"
         fill="#f1f1f1"
         height="32"
         id="LogoutAuthEvent"
         rx="2.5"
         ry="2.5"
         style="stroke:#181818;stroke-width:0.5"
         width="141"
         x="1624.5"
         y="414" />
      <circle
         cx="1639.5"
         cy="430"
         fill="#add1b2"
         style="stroke:#181818;stroke-width:1"
         id="ellipse22"
         r="11" />
      <path
         d="m 1642.2656,425.875 q 0.1563,-0.2187 0.3438,-0.3281 0.1875,-0.1094 0.4062,-0.1094 0.375,0 0.6094,0.2578 0.2344,0.2578 0.2344,0.8672 v 1.4531 q 0,0.6094 -0.2344,0.875 -0.2344,0.2657 -0.6094,0.2657 -0.3437,0 -0.5468,-0.2032 -0.2032,-0.1875 -0.3125,-0.7031 -0.047,-0.3594 -0.2344,-0.5469 -0.3281,-0.375 -0.9375,-0.5937 -0.6094,-0.2188 -1.2344,-0.2188 -0.7656,0 -1.3984,0.3282 -0.6328,0.3281 -1.125,1.0781 -0.4922,0.75 -0.4922,1.7812 v 1.0938 q 0,1.2344 0.8906,2.0547 0.8906,0.8203 2.4844,0.8203 0.9375,0 1.5937,-0.25 0.3907,-0.1563 0.8125,-0.5938 0.2657,-0.2656 0.4141,-0.3437 0.1484,-0.0781 0.3516,-0.0781 0.3281,0 0.5859,0.2578 0.2578,0.2578 0.2578,0.6015 0,0.3438 -0.3437,0.75 -0.5,0.5782 -1.2969,0.9063 -1.0781,0.4531 -2.375,0.4531 -1.5156,0 -2.7188,-0.625 -0.9843,-0.5 -1.6718,-1.5703 -0.6875,-1.0703 -0.6875,-2.3516 v -1.1562 q 0,-1.3281 0.6171,-2.4766 0.6172,-1.1484 1.711,-1.7656 1.0937,-0.6172 2.3281,-0.6172 0.7344,0 1.3828,0.1641 0.6485,0.164 1.1953,0.5234 z"
         fill="#000000"
         id="path23" />
      <text
         fill="#000000"
         font-family="sans-serif"
         font-size="14px"
         lengthAdjust="spacing"
         textLength="109"
         x="1653.5"
         y="435.72849"
         id="text23">LogoutAuthEvent</text>
    </g>
    <!--class DeleteUserAuthEvent-->
    <g
       id="elem_DeleteUserAuthEvent"
       transform="translate(-865.24707,175.66726)">
      <rect
         codeLine="54"
         fill="#f1f1f1"
         height="32"
         id="DeleteUserAuthEvent"
         rx="2.5"
         ry="2.5"
         style="stroke:#181818;stroke-width:0.5"
         width="167"
         x="1800.5"
         y="414" />
      <circle
         cx="1815.5"
         cy="430"
         fill="#add1b2"
         style="stroke:#181818;stroke-width:1"
         id="ellipse23"
         r="11" />
      <path
         d="m 1818.2656,425.875 q 0.1563,-0.2187 0.3438,-0.3281 0.1875,-0.1094 0.4062,-0.1094 0.375,0 0.6094,0.2578 0.2344,0.2578 0.2344,0.8672 v 1.4531 q 0,0.6094 -0.2344,0.875 -0.2344,0.2657 -0.6094,0.2657 -0.3437,0 -0.5468,-0.2032 -0.2032,-0.1875 -0.3125,-0.7031 -0.047,-0.3594 -0.2344,-0.5469 -0.3281,-0.375 -0.9375,-0.5937 -0.6094,-0.2188 -1.2344,-0.2188 -0.7656,0 -1.3984,0.3282 -0.6328,0.3281 -1.125,1.0781 -0.4922,0.75 -0.4922,1.7812 v 1.0938 q 0,1.2344 0.8906,2.0547 0.8906,0.8203 2.4844,0.8203 0.9375,0 1.5937,-0.25 0.3907,-0.1563 0.8125,-0.5938 0.2657,-0.2656 0.4141,-0.3437 0.1484,-0.0781 0.3516,-0.0781 0.3281,0 0.5859,0.2578 0.2578,0.2578 0.2578,0.6015 0,0.3438 -0.3437,0.75 -0.5,0.5782 -1.2969,0.9063 -1.0781,0.4531 -2.375,0.4531 -1.5156,0 -2.7188,-0.625 -0.9843,-0.5 -1.6718,-1.5703 -0.6875,-1.0703 -0.6875,-2.3516 v -1.1562 q 0,-1.3281 0.6171,-2.4766 0.6172,-1.1484 1.711,-1.7656 1.0937,-0.6172 2.3281,-0.6172 0.7344,0 1.3828,0.1641 0.6485,0.164 1.1953,0.5234 z"
         fill="#000000"
         id="path24" />
      <text
         fill="#000000"
         font-family="sans-serif"
         font-size="14px"
         lengthAdjust="spacing"
         textLength="135"
         x="1829.5"
         y="435.72849"
         id="text24">DeleteUserAuthEvent</text>
    </g>
    <!--class AuthState-->
    <g
       id="elem_AuthState"
       transform="translate(-570.72667,232.20395)">
      <rect
         codeLine="69"
         fill="#f1f1f1"
         height="32"
         id="AuthState"
         rx="2.5"
         ry="2.5"
         style="stroke:#181818;stroke-width:0.5"
         width="94"
         x="892"
         y="262" />
      <circle
         cx="907"
         cy="278"
         fill="#add1b2"
         style="stroke:#181818;stroke-width:1"
         id="ellipse24"
         r="11" />
      <path
         d="m 909.7656,273.875 q 0.1563,-0.2187 0.3438,-0.3281 0.1875,-0.1094 0.4062,-0.1094 0.375,0 0.6094,0.2578 0.2344,0.2578 0.2344,0.8672 v 1.4531 q 0,0.6094 -0.2344,0.875 -0.2344,0.2657 -0.6094,0.2657 -0.3437,0 -0.5468,-0.2032 -0.2032,-0.1875 -0.3125,-0.7031 -0.0469,-0.3594 -0.2344,-0.5469 -0.3281,-0.375 -0.9375,-0.5937 -0.6094,-0.2188 -1.2344,-0.2188 -0.7656,0 -1.3984,0.3282 -0.6328,0.3281 -1.125,1.0781 -0.4922,0.75 -0.4922,1.7812 v 1.0938 q 0,1.2344 0.8906,2.0547 0.8906,0.8203 2.4844,0.8203 0.9375,0 1.5937,-0.25 0.3907,-0.1563 0.8125,-0.5938 0.2657,-0.2656 0.4141,-0.3437 0.1484,-0.0781 0.3516,-0.0781 0.3281,0 0.5859,0.2578 0.2578,0.2578 0.2578,0.6015 0,0.3438 -0.3437,0.75 -0.5,0.5782 -1.2969,0.9063 -1.0781,0.4531 -2.375,0.4531 -1.5156,0 -2.7188,-0.625 -0.9843,-0.5 -1.6718,-1.5703 -0.6875,-1.0703 -0.6875,-2.3516 v -1.1562 q 0,-1.3281 0.6171,-2.4766 0.6172,-1.1484 1.711,-1.7656 1.0937,-0.6172 2.3281,-0.6172 0.7344,0 1.3828,0.1641 0.6485,0.164 1.1953,0.5234 z"
         fill="#000000"
         id="path25" />
      <text
         fill="#000000"
         font-family="sans-serif"
         font-size="14px"
         lengthAdjust="spacing"
         textLength="62"
         x="921"
         y="283.72849"
         id="text25">AuthState</text>
    </g>
    <!--class LoggedAuthState-->
    <g
       id="elem_LoggedAuthState"
       transform="translate(-540.72667,172.20395)">
      <rect
         codeLine="72"
         fill="#f1f1f1"
         height="32"
         id="LoggedAuthState"
         rx="2.5"
         ry="2.5"
         style="stroke:#181818;stroke-width:0.5"
         width="142"
         x="685"
         y="414" />
      <circle
         cx="700"
         cy="430"
         fill="#add1b2"
         style="stroke:#181818;stroke-width:1"
         id="ellipse25"
         r="11" />
      <path
         d="m 702.7656,425.875 q 0.1563,-0.2187 0.3438,-0.3281 0.1875,-0.1094 0.4062,-0.1094 0.375,0 0.6094,0.2578 0.2344,0.2578 0.2344,0.8672 v 1.4531 q 0,0.6094 -0.2344,0.875 -0.2344,0.2657 -0.6094,0.2657 -0.3437,0 -0.5468,-0.2032 -0.2032,-0.1875 -0.3125,-0.7031 -0.0469,-0.3594 -0.2344,-0.5469 -0.3281,-0.375 -0.9375,-0.5937 -0.6094,-0.2188 -1.2344,-0.2188 -0.7656,0 -1.3984,0.3282 -0.6328,0.3281 -1.125,1.0781 -0.4922,0.75 -0.4922,1.7812 v 1.0938 q 0,1.2344 0.8906,2.0547 0.8906,0.8203 2.4844,0.8203 0.9375,0 1.5937,-0.25 0.3907,-0.1563 0.8125,-0.5938 0.2657,-0.2656 0.4141,-0.3437 0.1484,-0.0781 0.3516,-0.0781 0.3281,0 0.5859,0.2578 0.2578,0.2578 0.2578,0.6015 0,0.3438 -0.3437,0.75 -0.5,0.5782 -1.2969,0.9063 -1.0781,0.4531 -2.375,0.4531 -1.5156,0 -2.7188,-0.625 -0.9843,-0.5 -1.6718,-1.5703 -0.6875,-1.0703 -0.6875,-2.3516 v -1.1562 q 0,-1.3281 0.6171,-2.4766 0.6172,-1.1484 1.711,-1.7656 1.0937,-0.6172 2.3281,-0.6172 0.7344,0 1.3828,0.1641 0.6485,0.164 1.1953,0.5234 z"
         fill="#000000"
         id="path26" />
      <text
         fill="#000000"
         font-family="sans-serif"
         font-size="14px"
         lengthAdjust="spacing"
         textLength="110"
         x="714"
         y="435.72849"
         id="text26">LoggedAuthState</text>
    </g>
    <!--class LogoutedAuthState-->
    <g
       id="elem_LogoutedAuthState"
       transform="translate(-570.72667,172.20395)">
      <rect
         codeLine="79"
         fill="#f1f1f1"
         height="32"
         id="LogoutedAuthState"
         rx="2.5"
         ry="2.5"
         style="stroke:#181818;stroke-width:0.5"
         width="154"
         x="862"
         y="414" />
      <circle
         cx="877"
         cy="430"
         fill="#add1b2"
         style="stroke:#181818;stroke-width:1"
         id="ellipse26"
         r="11" />
      <path
         d="m 879.7656,425.875 q 0.1563,-0.2187 0.3438,-0.3281 0.1875,-0.1094 0.4062,-0.1094 0.375,0 0.6094,0.2578 0.2344,0.2578 0.2344,0.8672 v 1.4531 q 0,0.6094 -0.2344,0.875 -0.2344,0.2657 -0.6094,0.2657 -0.3437,0 -0.5468,-0.2032 -0.2032,-0.1875 -0.3125,-0.7031 -0.0469,-0.3594 -0.2344,-0.5469 -0.3281,-0.375 -0.9375,-0.5937 -0.6094,-0.2188 -1.2344,-0.2188 -0.7656,0 -1.3984,0.3282 -0.6328,0.3281 -1.125,1.0781 -0.4922,0.75 -0.4922,1.7812 v 1.0938 q 0,1.2344 0.8906,2.0547 0.8906,0.8203 2.4844,0.8203 0.9375,0 1.5937,-0.25 0.3907,-0.1563 0.8125,-0.5938 0.2657,-0.2656 0.4141,-0.3437 0.1484,-0.0781 0.3516,-0.0781 0.3281,0 0.5859,0.2578 0.2578,0.2578 0.2578,0.6015 0,0.3438 -0.3437,0.75 -0.5,0.5782 -1.2969,0.9063 -1.0781,0.4531 -2.375,0.4531 -1.5156,0 -2.7188,-0.625 -0.9843,-0.5 -1.6718,-1.5703 -0.6875,-1.0703 -0.6875,-2.3516 v -1.1562 q 0,-1.3281 0.6171,-2.4766 0.6172,-1.1484 1.711,-1.7656 1.0937,-0.6172 2.3281,-0.6172 0.7344,0 1.3828,0.1641 0.6485,0.164 1.1953,0.5234 z"
         fill="#000000"
         id="path27" />
      <text
         fill="#000000"
         font-family="sans-serif"
         font-size="14px"
         lengthAdjust="spacing"
         textLength="122"
         x="891"
         y="435.72849"
         id="text27">LogoutedAuthState</text>
    </g>
    <!--class LoadingAuthState-->
    <g
       id="elem_LoadingAuthState"
       transform="translate(-600.72667,172.20395)">
      <rect
         codeLine="84"
         fill="#f1f1f1"
         height="32"
         id="LoadingAuthState"
         rx="2.5"
         ry="2.5"
         style="stroke:#181818;stroke-width:0.5"
         width="145"
         x="1051.5"
         y="414" />
      <circle
         cx="1066.5"
         cy="430"
         fill="#add1b2"
         style="stroke:#181818;stroke-width:1"
         id="ellipse27"
         r="11" />
      <path
         d="m 1069.2656,425.875 q 0.1563,-0.2187 0.3438,-0.3281 0.1875,-0.1094 0.4062,-0.1094 0.375,0 0.6094,0.2578 0.2344,0.2578 0.2344,0.8672 v 1.4531 q 0,0.6094 -0.2344,0.875 -0.2344,0.2657 -0.6094,0.2657 -0.3437,0 -0.5468,-0.2032 -0.2032,-0.1875 -0.3125,-0.7031 -0.047,-0.3594 -0.2344,-0.5469 -0.3281,-0.375 -0.9375,-0.5937 -0.6094,-0.2188 -1.2344,-0.2188 -0.7656,0 -1.3984,0.3282 -0.6328,0.3281 -1.125,1.0781 -0.4922,0.75 -0.4922,1.7812 v 1.0938 q 0,1.2344 0.8906,2.0547 0.8906,0.8203 2.4844,0.8203 0.9375,0 1.5937,-0.25 0.3907,-0.1563 0.8125,-0.5938 0.2657,-0.2656 0.4141,-0.3437 0.1484,-0.0781 0.3516,-0.0781 0.3281,0 0.5859,0.2578 0.2578,0.2578 0.2578,0.6015 0,0.3438 -0.3437,0.75 -0.5,0.5782 -1.2969,0.9063 -1.0781,0.4531 -2.375,0.4531 -1.5156,0 -2.7188,-0.625 -0.9843,-0.5 -1.6718,-1.5703 -0.6875,-1.0703 -0.6875,-2.3516 v -1.1562 q 0,-1.3281 0.6171,-2.4766 0.6172,-1.1484 1.711,-1.7656 1.0937,-0.6172 2.3281,-0.6172 0.7344,0 1.3828,0.1641 0.6485,0.164 1.1953,0.5234 z"
         fill="#000000"
         id="path28" />
      <text
         fill="#000000"
         font-family="sans-serif"
         font-size="14px"
         lengthAdjust="spacing"
         textLength="113"
         x="1080.5"
         y="435.72849"
         id="text28">LoadingAuthState</text>
    </g>
    <!--class LoginPage-->
    <g
       id="elem_LoginPage">
      <rect
         codeLine="89"
         fill="#f1f1f1"
         height="32"
         id="LoginPage"
         rx="2.5"
         ry="2.5"
         style="stroke:#181818;stroke-width:0.5"
         width="100"
         x="340"
         y="262" />
      <circle
         cx="355"
         cy="278"
         fill="#add1b2"
         style="stroke:#181818;stroke-width:1"
         id="ellipse28"
         r="11" />
      <path
         d="m 357.7656,273.875 q 0.1563,-0.2187 0.3438,-0.3281 0.1875,-0.1094 0.4062,-0.1094 0.375,0 0.6094,0.2578 0.2344,0.2578 0.2344,0.8672 v 1.4531 q 0,0.6094 -0.2344,0.875 -0.2344,0.2657 -0.6094,0.2657 -0.3437,0 -0.5468,-0.2032 -0.2032,-0.1875 -0.3125,-0.7031 -0.0469,-0.3594 -0.2344,-0.5469 -0.3281,-0.375 -0.9375,-0.5937 -0.6094,-0.2188 -1.2344,-0.2188 -0.7656,0 -1.3984,0.3282 -0.6328,0.3281 -1.125,1.0781 -0.4922,0.75 -0.4922,1.7812 v 1.0938 q 0,1.2344 0.8906,2.0547 0.8906,0.8203 2.4844,0.8203 0.9375,0 1.5937,-0.25 0.3907,-0.1563 0.8125,-0.5938 0.2657,-0.2656 0.4141,-0.3437 0.1484,-0.0781 0.3516,-0.0781 0.3281,0 0.5859,0.2578 0.2578,0.2578 0.2578,0.6015 0,0.3438 -0.3437,0.75 -0.5,0.5782 -1.2969,0.9063 -1.0781,0.4531 -2.375,0.4531 -1.5156,0 -2.7188,-0.625 -0.9843,-0.5 -1.6718,-1.5703 -0.6875,-1.0703 -0.6875,-2.3516 v -1.1562 q 0,-1.3281 0.6171,-2.4766 0.6172,-1.1484 1.711,-1.7656 1.0937,-0.6172 2.3281,-0.6172 0.7344,0 1.3828,0.1641 0.6485,0.164 1.1953,0.5234 z"
         fill="#000000"
         id="path29" />
      <text
         fill="#000000"
         font-family="sans-serif"
         font-size="14px"
         lengthAdjust="spacing"
         textLength="68"
         x="369"
         y="283.72849"
         id="text29">LoginPage</text>
    </g>
    <!--class ProfilePage-->
    <g
       id="elem_ProfilePage"
       transform="translate(-136.06202,37.316587)">
      <rect
         codeLine="93"
         fill="#f1f1f1"
         height="32"
         id="ProfilePage"
         rx="2.5"
         ry="2.5"
         style="stroke:#181818;stroke-width:0.5"
         width="105"
         x="475.5"
         y="262" />
      <circle
         cx="490.5"
         cy="278"
         fill="#add1b2"
         style="stroke:#181818;stroke-width:1"
         id="ellipse29"
         r="11" />
      <path
         d="m 493.2656,273.875 q 0.1563,-0.2187 0.3438,-0.3281 0.1875,-0.1094 0.4062,-0.1094 0.375,0 0.6094,0.2578 0.2344,0.2578 0.2344,0.8672 v 1.4531 q 0,0.6094 -0.2344,0.875 -0.2344,0.2657 -0.6094,0.2657 -0.3437,0 -0.5468,-0.2032 -0.2032,-0.1875 -0.3125,-0.7031 -0.0469,-0.3594 -0.2344,-0.5469 -0.3281,-0.375 -0.9375,-0.5937 -0.6094,-0.2188 -1.2344,-0.2188 -0.7656,0 -1.3984,0.3282 -0.6328,0.3281 -1.125,1.0781 -0.4922,0.75 -0.4922,1.7812 v 1.0938 q 0,1.2344 0.8906,2.0547 0.8906,0.8203 2.4844,0.8203 0.9375,0 1.5937,-0.25 0.3907,-0.1563 0.8125,-0.5938 0.2657,-0.2656 0.4141,-0.3437 0.1484,-0.0781 0.3516,-0.0781 0.3281,0 0.5859,0.2578 0.2578,0.2578 0.2578,0.6015 0,0.3438 -0.3437,0.75 -0.5,0.5782 -1.2969,0.9063 -1.0781,0.4531 -2.375,0.4531 -1.5156,0 -2.7188,-0.625 -0.9843,-0.5 -1.6718,-1.5703 -0.6875,-1.0703 -0.6875,-2.3516 v -1.1562 q 0,-1.3281 0.6171,-2.4766 0.6172,-1.1484 1.711,-1.7656 1.0937,-0.6172 2.3281,-0.6172 0.7344,0 1.3828,0.1641 0.6485,0.164 1.1953,0.5234 z"
         fill="#000000"
         id="path30" />
      <text
         fill="#000000"
         font-family="sans-serif"
         font-size="14px"
         lengthAdjust="spacing"
         textLength="73"
         x="504.5"
         y="283.72849"
         id="text30">ProfilePage</text>
    </g>
    <!--class SignUpPage-->
    <g
       id="elem_SignUpPage"
       transform="translate(-0.574097,-77.20728)">
      <rect
         codeLine="97"
         fill="#f1f1f1"
         height="32"
         id="SignUpPage"
         rx="2.5"
         ry="2.5"
         style="stroke:#181818;stroke-width:0.5"
         width="110"
         x="340"
         y="414" />
      <circle
         cx="355"
         cy="430"
         fill="#add1b2"
         style="stroke:#181818;stroke-width:1"
         id="ellipse30"
         r="11" />
      <path
         d="m 357.7656,425.875 q 0.1563,-0.2187 0.3438,-0.3281 0.1875,-0.1094 0.4062,-0.1094 0.375,0 0.6094,0.2578 0.2344,0.2578 0.2344,0.8672 v 1.4531 q 0,0.6094 -0.2344,0.875 -0.2344,0.2657 -0.6094,0.2657 -0.3437,0 -0.5468,-0.2032 -0.2032,-0.1875 -0.3125,-0.7031 -0.0469,-0.3594 -0.2344,-0.5469 -0.3281,-0.375 -0.9375,-0.5937 -0.6094,-0.2188 -1.2344,-0.2188 -0.7656,0 -1.3984,0.3282 -0.6328,0.3281 -1.125,1.0781 -0.4922,0.75 -0.4922,1.7812 v 1.0938 q 0,1.2344 0.8906,2.0547 0.8906,0.8203 2.4844,0.8203 0.9375,0 1.5937,-0.25 0.3907,-0.1563 0.8125,-0.5938 0.2657,-0.2656 0.4141,-0.3437 0.1484,-0.0781 0.3516,-0.0781 0.3281,0 0.5859,0.2578 0.2578,0.2578 0.2578,0.6015 0,0.3438 -0.3437,0.75 -0.5,0.5782 -1.2969,0.9063 -1.0781,0.4531 -2.375,0.4531 -1.5156,0 -2.7188,-0.625 -0.9843,-0.5 -1.6718,-1.5703 -0.6875,-1.0703 -0.6875,-2.3516 v -1.1562 q 0,-1.3281 0.6171,-2.4766 0.6172,-1.1484 1.711,-1.7656 1.0937,-0.6172 2.3281,-0.6172 0.7344,0 1.3828,0.1641 0.6485,0.164 1.1953,0.5234 z"
         fill="#000000"
         id="path31" />
      <text
         fill="#000000"
         font-family="sans-serif"
         font-size="14px"
         lengthAdjust="spacing"
         textLength="78"
         x="369"
         y="435.72849"
         id="text31">SignUpPage</text>
    </g>
    <!--class ProfileIconWidget-->
    <g
       id="elem_ProfileIconWidget">
      <rect
         codeLine="101"
         fill="#f1f1f1"
         height="32"
         id="ProfileIconWidget"
         rx="2.5"
         ry="2.5"
         style="stroke:#181818;stroke-width:0.5"
         width="142"
         x="142"
         y="262" />
      <circle
         cx="157"
         cy="278"
         fill="#add1b2"
         style="stroke:#181818;stroke-width:1"
         id="ellipse31"
         r="11" />
      <path
         d="m 159.7656,273.875 q 0.1563,-0.2187 0.3438,-0.3281 0.1875,-0.1094 0.4062,-0.1094 0.375,0 0.6094,0.2578 0.2344,0.2578 0.2344,0.8672 v 1.4531 q 0,0.6094 -0.2344,0.875 -0.2344,0.2657 -0.6094,0.2657 -0.3437,0 -0.5468,-0.2032 -0.2032,-0.1875 -0.3125,-0.7031 -0.0469,-0.3594 -0.2344,-0.5469 -0.3281,-0.375 -0.9375,-0.5937 -0.6094,-0.2188 -1.2344,-0.2188 -0.7656,0 -1.3984,0.3282 -0.6328,0.3281 -1.125,1.0781 -0.4922,0.75 -0.4922,1.7812 v 1.0938 q 0,1.2344 0.8906,2.0547 0.8906,0.8203 2.4844,0.8203 0.9375,0 1.5937,-0.25 0.3907,-0.1563 0.8125,-0.5938 0.2657,-0.2656 0.4141,-0.3437 0.1484,-0.0781 0.3516,-0.0781 0.3281,0 0.5859,0.2578 0.2578,0.2578 0.2578,0.6015 0,0.3438 -0.3437,0.75 -0.5,0.5782 -1.2969,0.9063 -1.0781,0.4531 -2.375,0.4531 -1.5156,0 -2.7188,-0.625 -0.9843,-0.5 -1.6718,-1.5703 -0.6875,-1.0703 -0.6875,-2.3516 v -1.1562 q 0,-1.3281 0.6171,-2.4766 0.6172,-1.1484 1.711,-1.7656 1.0937,-0.6172 2.3281,-0.6172 0.7344,0 1.3828,0.1641 0.6485,0.164 1.1953,0.5234 z"
         fill="#000000"
         id="path32" />
      <text
         fill="#000000"
         font-family="sans-serif"
         font-size="14px"
         lengthAdjust="spacing"
         textLength="110"
         x="171"
         y="283.72849"
         id="text32">ProfileIconWidget</text>
    </g>
    <!--reverse link IAuthService to FirebaseAuthService-->
    <g
       id="link_IAuthService_FirebaseAuthService"
       transform="matrix(0.52353969,0.85981885,-0.8521342,0.51059921,-343.02245,-1035.486)">
      <path
         codeLine="19"
         d="m 2114.39,144.21433 c 46.5,28.82 63.4473,39.70065 109.7273,68.38065"
         fill="none"
         id="IAuthService-backto-FirebaseAuthService"
         style="stroke:#181818;stroke-width:1"
         sodipodi:nodetypes="cc" />
      <polygon
         fill="none"
         points="2116.6789,308.7924 2123.0006,298.5926 2104.54,294.21 "
         style="stroke:#181818;stroke-width:1"
         id="polygon32"
         transform="translate(-5.4497213,-159.47817)" />
    </g>
    <!--reverse link AuthEvent to LoginAuthEvent-->
    <g
       id="link_AuthEvent_LoginAuthEvent"
       transform="translate(-715.40021,239.66726)">
      <path
         codeLine="38"
         d="m 1533.3899,283.7939 -172.9688,29.12117"
         fill="none"
         id="AuthEvent-backto-LoginAuthEvent"
         style="stroke:#181818;stroke-width:1"
         sodipodi:nodetypes="cc" />
      <polygon
         fill="none"
         points="1534.0212,289.7605 1551.29,281.9 1532.7586,277.8272 "
         style="stroke:#181818;stroke-width:1"
         id="polygon33" />
    </g>
    <!--reverse link AuthEvent to CreateUserAuthEvent-->
    <g
       id="link_AuthEvent_CreateUserAuthEvent"
       transform="translate(-717.12251,240.24136)">
      <path
         codeLine="47"
         d="m 1582.6042,307.04813 -61.1489,43.17055"
         fill="none"
         id="AuthEvent-backto-CreateUserAuthEvent"
         style="stroke:#181818;stroke-width:1"
         sodipodi:nodetypes="cc" />
      <polygon
         fill="none"
         points="1575.6697,306.2058 1585.8072,312.6269 1590.37,294.21 "
         style="stroke:#181818;stroke-width:1"
         id="polygon34"
         transform="rotate(17.718089,1591.6447,313.12101)" />
    </g>
    <!--reverse link AuthEvent to LogoutAuthEvent-->
    <g
       id="link_AuthEvent_LogoutAuthEvent"
       transform="translate(-717.12251,240.24136)">
      <path
         codeLine="52"
         d="m 1619.2616,309.4163 33.3547,41.32608"
         fill="none"
         id="AuthEvent-backto-LogoutAuthEvent"
         style="stroke:#181818;stroke-width:1"
         sodipodi:nodetypes="cc" />
      <polygon
         fill="none"
         points="1624.3303,306.2058 1609.63,294.21 1614.1928,312.6269 "
         style="stroke:#181818;stroke-width:1"
         id="polygon35" />
    </g>
    <!--reverse link DeleteUserAuthEvent to UserEntity-->
    <g
       id="link_DeleteUserAuthEvent_UserEntity"
       transform="translate(-665.75956,128.2805)">
      <path
         codeLine="58"
         d="m 1701.5621,503.18196 c -103.0891,80.25556 -229.6363,92.99723 -353.2485,94.15356"
         fill="none"
         id="DeleteUserAuthEvent-backto-UserEntity"
         style="stroke:#181818;stroke-width:1"
         sodipodi:nodetypes="cc" />
      <polygon
         fill="none"
         points="1857.9425,446.5826 1855.5827,453.3966 1862.7802,452.9541 1865.14,446.14 "
         style="stroke:#181818;stroke-width:1"
         id="polygon36"
         transform="rotate(-15.38398,1963.3655,1049.064)" />
    </g>
    <!--reverse link AuthEvent to DeleteUserAuthEvent-->
    <g
       id="link_AuthEvent_DeleteUserAuthEvent"
       transform="translate(-715.40021,239.66726)">
      <path
         codeLine="59"
         d="m 1666.3608,286.8704 75.1993,26.81892"
         fill="none"
         id="AuthEvent-backto-DeleteUserAuthEvent"
         style="stroke:#181818;stroke-width:1"
         sodipodi:nodetypes="cc" />
      <polygon
         fill="none"
         points="1648.56,284.2 1665.4707,292.804 1667.2509,280.9367 "
         style="stroke:#181818;stroke-width:1"
         id="polygon37"
         transform="rotate(15.04876,1669.146,286.71026)" />
    </g>
    <!--reverse link LoggedAuthState to UserEntity-->
    <g
       id="link_LoggedAuthState_UserEntity"
       transform="translate(-665.75956,128.2805)">
      <path
         codeLine="76"
         d="m 852.57918,499.98498 c 104.02737,92.63568 301.30572,97.13729 400.29332,97.53019"
         fill="none"
         id="LoggedAuthState-backto-UserEntity"
         style="stroke:#181818;stroke-width:1"
         sodipodi:nodetypes="cc" />
      <polygon
         fill="none"
         points="781.0318,454.2004 779.211,447.2229 772.07,446.22 773.8908,453.1975 "
         style="stroke:#181818;stroke-width:1"
         id="polygon38"
         transform="rotate(9.5761507,543.20369,903.71836)" />
    </g>
    <!--reverse link AuthState to LoggedAuthState-->
    <g
       id="link_AuthState_LoggedAuthState"
       transform="translate(-566.72667,232.20395)">
      <path
         codeLine="77"
         d="m 883.4916,301.3185 c -28.89906,17.54832 -57.79812,35.09664 -86.69718,52.64496"
         fill="none"
         id="AuthState-backto-LoggedAuthState"
         style="stroke:#181818;stroke-width:1"
         sodipodi:nodetypes="cc" />
      <polygon
         fill="none"
         points="899.95,294.03 881.0621,295.8323 885.9211,306.8046 "
         style="stroke:#181818;stroke-width:1"
         id="polygon39" />
    </g>
    <!--reverse link AuthState to LogoutedAuthState-->
    <g
       id="link_AuthState_LogoutedAuthState"
       transform="translate(-568.72667,232.20395)">
      <path
         codeLine="82"
         d="m 939,312.21 v 41.66223"
         fill="none"
         id="AuthState-backto-LogoutedAuthState"
         style="stroke:#181818;stroke-width:1"
         sodipodi:nodetypes="cc" />
      <polygon
         fill="none"
         points="933,312.21 945,312.21 939,294.21 "
         style="stroke:#181818;stroke-width:1"
         id="polygon40" />
    </g>
    <!--reverse link AuthState to LoadingAuthState-->
    <g
       id="link_AuthState_LoadingAuthState"
       transform="translate(-566.72667,232.20395)">
      <path
         codeLine="87"
         d="m 993.5013,301.3817 c 3.20153,1.4372 81.1545,46.30255 85.4926,52.34471"
         fill="none"
         id="AuthState-backto-LoadingAuthState"
         style="stroke:#181818;stroke-width:1"
         sodipodi:nodetypes="cc" />
      <polygon
         fill="none"
         points="977.08,294.01 991.044,306.8554 995.9585,295.9079 "
         style="stroke:#181818;stroke-width:1"
         id="polygon41" />
    </g>
    <!--SRC=[pLRRQkCm47ttLuW-xLBw0w8KIhSBWNq8cDB7eaWJHzIMZ2Itb6p_VKUMaygNBF45cZVDKJnpPdGoCnOSKQm0Mp8EAPJCCASDeJH9Tb80AS3jjB31OCuPkQaSD3RFcRLe9FM1N6ropVMBOY-cOfHQmodT0dEL0KifgzoEKi4SNZ71IWS6qISBvZvOLsIV4BAtZZd9FycrltfKJheFiZMw-2qDR9W53__ucNoEZueVladkqOElUxnD0ngYNuiFh8RaX1jqSOWLuRdEfEf1kd9jB0FN_rP03YxYVmvpgR0oZEERnFnNBUAtVszk5Yj3aa2e-LXszMSIcZSD3zSKDKNPg8n84HbUT9491PDvP9SxhUBxqkYjp65Li2o6dNu5DKuBBSvlo1flV04U_TaJdktjZzT8o-L_yiH0xzg8ANeOO7-s5CxWFRSC3yU_qDXQd5H9KCK5b6eejmLaWtsaAyKB44MBrTmiVnsRO5SLKR-ly3Wd-S4WUaeLXfhQjx_9K7f9KlzoYsESB3LOzXCctwd1sHf-WvDoSj_r6mCqvKtzULONFtX3uMSWMZwN4Ud90Dydq84AJXBegTGMU0iKMkSrPfH-mJmxlEPdoWHEkijBj4DhJ9wLfBJ4lUsmOgpnVDm4qDdj4RrhsaSDZsq9KPXrs1PxWI9ygL2fpDHJsOlq1SyEz2u5Diclh5PSg-SQwwpNVZTUCxVpMFW1sLGo5w7XnaYzHlVX1sbutd3y1m00]-->
  </g>
</svg>
